<svg xmlns="http://www.w3.org/2000/svg" xmlns:xlink="http://www.w3.org/1999/xlink" width="44.996" height="44.996" viewBox="0 0 44.996 44.996">
  <defs>
    <clipPath id="clip-path">
      <path id="Path_13971" data-name="Path 13971" d="M1.882,22.5A20.616,20.616,0,1,1,22.5,43.114,20.64,20.64,0,0,1,1.882,22.5M22.5,0A22.5,22.5,0,1,0,45,22.5,22.523,22.523,0,0,0,22.5,0Z" fill="#fff"/>
    </clipPath>
    <clipPath id="clip-path-2">
      <path id="Path_13974" data-name="Path 13974" d="M4,25.557A21.557,21.557,0,1,0,25.557,4,21.557,21.557,0,0,0,4,25.557" transform="translate(-4 -4)" fill="none"/>
    </clipPath>
    <radialGradient id="radial-gradient" cx="0.5" cy="0.5" r="0.5" gradientUnits="objectBoundingBox">
      <stop offset="0" stop-color="#d8d8d8"/>
      <stop offset="1" stop-color="#fff"/>
    </radialGradient>
    <linearGradient id="linear-gradient" x1="0.5" x2="0.5" y2="1" gradientUnits="objectBoundingBox">
      <stop offset="0" stop-color="#14915f"/>
      <stop offset="1" stop-color="#05de6c"/>
    </linearGradient>
  </defs>
  <g id="player-pic" transform="translate(-86.244 -878)">
    <g id="Group_757" data-name="Group 757" transform="translate(86.244 878)">
      <g id="Group_754" data-name="Group 754">
        <g id="Group_753" data-name="Group 753" clip-path="url(#clip-path)">
          <rect id="Rectangle_252" data-name="Rectangle 252" width="44.996" height="44.996" transform="translate(0 0)" fill="#fff"/>
        </g>
      </g>
    </g>
    <g id="Group_777" data-name="Group 777" transform="translate(87.185 878.941)">
      <g id="Group_755" data-name="Group 755" clip-path="url(#clip-path-2)">
        <rect id="Rectangle_253" data-name="Rectangle 253" width="43.114" height="43.114" transform="translate(0 0)" fill="url(#radial-gradient)"/>
        <path id="Path_13972" data-name="Path 13972" d="M28.286,114.95c3.446,3.542,7.833,3.072,10.808.009.764.379,1.51.779,2.282,1.124.969.433,1.959.821,2.938,1.23a17.722,17.722,0,0,1,4.7,2.552,9.313,9.313,0,0,1,1.743,2.072,12.181,12.181,0,0,1,1.552,3.307,10.4,10.4,0,0,1,.4,3.719,1.477,1.477,0,0,1-.976,1.24,5.747,5.747,0,0,1-1.265.419c-.988.2-1.985.343-2.98.5-.969.158-1.941.318-2.912.454-.9.125-1.809.226-2.714.322-1.068.113-2.136.226-3.206.308-.837.066-1.675.1-2.514.12-1.475.026-2.95.045-4.424.028-.976-.012-1.955-.073-2.928-.136q-1.362-.092-2.721-.242c-.953-.1-1.905-.233-2.855-.36-1.016-.134-2.032-.268-3.044-.423-.868-.134-1.731-.292-2.592-.456-.515-.1-1.03-.216-1.536-.36a2.732,2.732,0,0,1-.7-.336,1.534,1.534,0,0,1-.72-1.357,11.244,11.244,0,0,1,.543-3.8,13.7,13.7,0,0,1,1.858-3.554,9.465,9.465,0,0,1,4.055-3.14c1.581-.706,3.192-1.341,4.777-2.039.814-.362,1.6-.793,2.43-1.2" transform="translate(-12.122 -88.853)" fill="url(#linear-gradient)"/>
        <path id="Path_13973" data-name="Path 13973" d="M74.735,28.322c0,.588,0,1.174,0,1.762,0,.179.033.285.235.322a.644.644,0,0,1,.485.557,6.049,6.049,0,0,1-.191,3.2,8.691,8.691,0,0,1-1.886,3.171,2.1,2.1,0,0,0-.3.732,8.016,8.016,0,0,1-3.356,4.342,5.9,5.9,0,0,1-2.99.908,5.125,5.125,0,0,1-2.18-.454,7.658,7.658,0,0,1-4.14-4.436c-.111-.275-.165-.576-.285-.849a1.954,1.954,0,0,0-.35-.487,8.038,8.038,0,0,1-1.853-3.566,5.56,5.56,0,0,1-.012-2.543.648.648,0,0,1,.543-.581c.141-.016.172-.111.172-.245,0-1.141,0-2.284.033-3.425a7.424,7.424,0,0,1,1.806-4.864,6.441,6.441,0,0,1,2.947-1.886A10.741,10.741,0,0,1,66.8,19.5a9.981,9.981,0,0,1,3.4.565,6.463,6.463,0,0,1,3.5,2.928,8.472,8.472,0,0,1,1.023,4.427c0,.3,0,.6,0,.906a.03.03,0,0,1,.014,0" transform="translate(-45.121 -15.853)" fill="url(#linear-gradient)"/>
      </g>
    </g>
  </g>
</svg>
