<svg xmlns="http://www.w3.org/2000/svg" xmlns:xlink="http://www.w3.org/1999/xlink" width="116.81" height="116.809" viewBox="0 0 116.81 116.809">
  <defs>
    <linearGradient id="linear-gradient" x1="-0.668" y1="1.052" x2="-0.666" y2="1.052" gradientUnits="objectBoundingBox">
      <stop offset="0" stop-color="#de007a"/>
      <stop offset="1" stop-color="#1a1818"/>
    </linearGradient>
    <clipPath id="clip-path">
      <path id="Path_13929" data-name="Path 13929" d="M0,342.362a58.4,58.4,0,1,0,58.4-58.4A58.47,58.47,0,0,0,0,342.362" transform="translate(0 -283.957)" fill="#fff"/>
    </clipPath>
    <linearGradient id="linear-gradient-2" x1="0.5" x2="0.5" y2="1" gradientUnits="objectBoundingBox">
      <stop offset="0" stop-color="#d1d3d4"/>
      <stop offset="1" stop-color="#fff"/>
    </linearGradient>
    <clipPath id="clip-path-2">
      <rect id="Rectangle_260" data-name="Rectangle 260" width="110.598" height="110.598" rx="55.299" transform="translate(5221.643 80.205) rotate(-0.673)" fill="url(#linear-gradient)"/>
    </clipPath>
    <clipPath id="clip-path-3">
      <rect id="Rectangle_259" data-name="Rectangle 259" width="70.97" height="209.03" transform="translate(0 0)" fill="none"/>
    </clipPath>
  </defs>
  <g id="player-2nd" transform="translate(-28.737 -302)">
    <g id="Group_776" data-name="Group 776">
      <g id="Group_729" data-name="Group 729" transform="translate(28.737 302)">
        <g id="Group_728" data-name="Group 728" clip-path="url(#clip-path)">
          <rect id="Rectangle_225" data-name="Rectangle 225" width="116.81" height="116.809" transform="translate(0 0)" fill="#fff"/>
        </g>
      </g>
      <rect id="Rectangle_226" data-name="Rectangle 226" width="111.888" height="111.888" rx="55.944" transform="matrix(1, -0.012, 0.012, 1, 30.512, 305.314)" fill="url(#linear-gradient-2)"/>
      <path id="Path_13930" data-name="Path 13930" d="M7.659,346.918a55.3,55.3,0,1,0,55.3-55.3,55.02,55.02,0,0,0-55.3,55.3" transform="translate(24.184 13.38)" fill="none"/>
      <g id="Mask_Group_7" data-name="Mask Group 7" transform="translate(-5189.8 226.094)" clip-path="url(#clip-path-2)">
        <g id="Group_769" data-name="Group 769" transform="translate(5242.103 96.205)">
          <g id="Group_768" data-name="Group 768" transform="translate(0 0)" clip-path="url(#clip-path-3)">
            <path id="Path_14048" data-name="Path 14048" d="M17.023,985.884A17.023,17.023,0,1,1,0,1002.907a17.023,17.023,0,0,1,17.023-17.023" transform="translate(0 -810.9)" fill="#dee0e3" fill-rule="evenodd"/>
            <path id="Path_14049" data-name="Path 14049" d="M17.023,985.884a16.966,16.966,0,0,1,11.794,4.748,17.024,17.024,0,0,1-26.139,21.443,17.026,17.026,0,0,1,14.345-26.191" transform="translate(0 -810.9)" fill="#edf2f5" fill-rule="evenodd"/>
            <path id="Path_14050" data-name="Path 14050" d="M15.69,1018.573s-.4.447-1.109,1.18a16.985,16.985,0,0,1-10.014-5.246c.054-.26.105-.505.15-.722.065-.315.125-.608.177-.866l.042-.207.2.06c.007,0,2,.618,5.686,1.742l.042.013.031.028s1.058.961,4.767,3.736l.167.125Zm1.332-32.69a17.273,17.273,0,0,1,2.05.123c.541.893.848,1.433.849,1.435l.1.174-.18.091a34.113,34.113,0,0,1-5.739,2.532l-.017,0h-.021c-3.727.189-6.107.12-6.114.12l-.2,0,.009-.2.072-1.593a16.945,16.945,0,0,1,9.184-2.688m10.325,3.489a17.028,17.028,0,0,1,6.263,9.691c-.56.726-.964,1.212-.965,1.213l-.122.153-.15-.125a35.1,35.1,0,0,1-4.615-4.32l-.013-.016-.008-.018a22,22,0,0,1-2-5.825l-.022-.152.144-.054c.323-.121.586-.218.8-.3l.689-.251m5.623,19.5a17.079,17.079,0,0,1-7.328,8.716l-.624-.333c-.216-.116-.463-.249-.746-.4l-.133-.072.039-.145a20.827,20.827,0,0,1,2.769-5.534l.013-.019.017-.016a49.7,49.7,0,0,1,4.825-3.622l.154-.107.111.152s.356.51.9,1.384m-32.694-2.9A17.142,17.142,0,0,1,0,1002.906a16.948,16.948,0,0,1,2.138-8.264c1.013-.144,1.628-.215,1.629-.215l.205-.032.014.209a40.794,40.794,0,0,1,.113,6.276l0,.02-.009.024c-1.284,3.457-2.072,5.65-2.075,5.656l-.073.2-.19-.092-.8-.386Zm15.082-11.488,7.688,3.334.124.054-.009.133c0,.009-.17,2.949-1.032,8.607l-.018.118-.115.035c-.007,0-2.564.787-7.98,1.961l-.124.026-.073-.1c-.006-.008-2.129-3.024-4.642-7.529L9.109,1001l.095-.1,5.939-6.369.092-.1Z" transform="translate(0 -810.899)" fill="#333" fill-rule="evenodd"/>
            <path id="Path_14051" data-name="Path 14051" d="M28.311,994.966A15.6,15.6,0,0,1,34.19,997.4l-.121.045.009.064a15.45,15.45,0,0,0-5.769-2.387l.071-.036Zm-6,21.248-3.041,5.833-.021-.019-.031-.028-.042-.013-.04-.012,3.045-5.839.066.093Zm-4.793-7.641-5.082-.162.005-.016.009-.024,0-.02s0-.031.009-.093l5.051.161-.05.054Zm5.015-10.885,1.13,4.248-.075-.032-.071.077-1.134-4.264.037,0h.021l.017,0,.076-.021m8.935,7.634,4.585-1.978.037.077.008.018.013.016.018.023-4.614,1.99.008-.122Zm-.991,8.8,4.9,4.378-.042.038-.017.016-.013.019-.028.042-4.9-4.38.09-.028Zm10.387-6.231a15.807,15.807,0,0,1-.472,7.03l-.082-.113-.056.039a15.651,15.651,0,0,0,.429-7.107l.043.036Zm-8.27,16.416a15.621,15.621,0,0,1-7.219,1.757q-.657,0-1.3-.054l.108-.119-.039-.029q.609.048,1.231.048a15.459,15.459,0,0,0,7.138-1.734l-.021.076Zm-19.337-3.969a15.636,15.636,0,0,1-3.1-6.152l.137.067.022-.061a15.476,15.476,0,0,0,3.03,6.011l-.058-.017Zm-1.073-18.448a15.767,15.767,0,0,1,3.93-4.171l-.005.114.107,0a15.6,15.6,0,0,0-3.885,4.112l-.005-.078Z" transform="translate(-8.358 -818.37)" fill="#999"/>
            <path id="Path_14052" data-name="Path 14052" d="M48.341,67l.018.189q-2.474-2.979-4.576-2.127c-4.26,1.727-.893,11.713,6.476,10.865,6.466,17.076,31.388,16.883,37.959.007,7.318.776,10.65-9.15,6.4-10.872q-2.072-.84-4.509,2.046c.218-18.8-8.566-29.105-21.464-29.269-10.7-.135-21.188,9.008-20.308,29.16" transform="translate(-34.472 -31.125)" fill="#fabf91" fill-rule="evenodd"/>
            <path id="Path_14053" data-name="Path 14053" d="M48.359,192.472q-2.474-2.979-4.576-2.127c-4.26,1.727-.893,11.713,6.476,10.865a33.35,33.35,0,0,1-1.9-8.738" transform="translate(-34.472 -156.405)" fill="#f0b585" fill-rule="evenodd"/>
            <path id="Path_14054" data-name="Path 14054" d="M304.7,192.392q2.436-2.887,4.509-2.046c4.246,1.721.914,11.647-6.4,10.872a31.773,31.773,0,0,0,1.886-8.168c0-.221.007-.439.01-.657" transform="translate(-249.063 -156.405)" fill="#f0b585" fill-rule="evenodd"/>
            <path id="Path_14055" data-name="Path 14055" d="M162.458,319.839q-.08,2.21-.121,2.961c1.209,3.984,10.181,4.128,11.542,0l-.135-2.913a21.709,21.709,0,0,1-11.287-.048" transform="translate(-133.524 -263.071)" fill="#f0b585" fill-rule="evenodd"/>
            <path id="Path_14056" data-name="Path 14056" d="M67.03,690.033A97.354,97.354,0,0,0,63.538,711.6c.458,5.094,13.43,6.26,18.134,3.349.24-1.1,4-8.3,5.18-8.083a50.262,50.262,0,0,1,2.488,12.365,33.922,33.922,0,0,0,20.17-3.36q-.263-4.415-2.948-25.841l-.136-.139H67.24Z" transform="translate(-52.261 -567.445)" fill="#292e3d" fill-rule="evenodd"/>
            <path id="Path_14057" data-name="Path 14057" d="M162.882,320.488a9.928,9.928,0,0,0,11.345.15l-.035-.75a21.709,21.709,0,0,1-11.287-.048Z" transform="translate(-133.972 -263.072)" fill="#c98a57" fill-rule="evenodd"/>
            <path id="Path_14058" data-name="Path 14058" d="M231.141,844.5c.216,9.324,3.428,18.735,3.064,26.856-.806.041-1.254,4.7-.713,6.546a15.639,15.639,0,0,1,2.909,5.367c1.038,2.906,9.751,4.1,9.947-1.115.1-2.762-.855-4.339-1.592-7.025q-.379-1.381-.852-3.163c.2-10.606,1.98-19.969,1.324-30.115a32.737,32.737,0,0,1-14.086,2.65" transform="translate(-190.116 -692.434)" fill="#ebebeb" fill-rule="evenodd"/>
            <path id="Path_14059" data-name="Path 14059" d="M231.141,844.5c.036,1.539.153,3.08.323,4.617a38.519,38.519,0,0,0,7.468.353,40.7,40.7,0,0,0,6.412-.786c.056-2.253.033-4.523-.116-6.833a32.737,32.737,0,0,1-14.086,2.65" transform="translate(-190.116 -692.434)" fill="#fabf91" fill-rule="evenodd"/>
            <path id="Path_14060" data-name="Path 14060" d="M231.141,844.5c0,.17.02.644.026.814a41.156,41.156,0,0,0,14.138-2c-.018-.367-.055-1.095-.078-1.463a32.737,32.737,0,0,1-14.086,2.65" transform="translate(-190.116 -692.434)" fill="#e0a370" fill-rule="evenodd"/>
            <path id="Path_14061" data-name="Path 14061" d="M244,1000.961c.863,1.133,1.671,1.441,2.031,1.276q4.6-5.275,7.667-.668.474,1.783.853,3.164c.737,2.686,1.695,4.263,1.592,7.025-.2,5.213-8.909,4.021-9.947,1.115a15.644,15.644,0,0,0-2.909-5.367c-.54-1.844-.093-6.507.714-6.546" transform="translate(-199.911 -822.035)" fill="#039" fill-rule="evenodd"/>
            <path id="Path_14062" data-name="Path 14062" d="M31.348,335.648c-7.762,2.079-13.741,4.479-17.343,6.989-2.912,2.65-7.321,14.965-10.93,25.056,3.361,3.853,9.4,5.046,13.874,4.774,0,0,1.04-3.582,2.887-8.085-.579,6.546-1.253,15.944-2.537,34.231a99.408,99.408,0,0,0,39.531,0q-1.926-27.43-2.795-37.249l6.887,7.675A28.167,28.167,0,0,0,73.5,360.75a132.756,132.756,0,0,0-13.375-18.113c-3.6-2.51-9.485-4.97-17.247-7.049l.008.166c-1.361,4.128-10.333,3.984-11.542,0Z" transform="translate(-2.529 -276.025)" fill="#ebebeb" fill-rule="evenodd"/>
            <path id="Path_14063" data-name="Path 14063" d="M4.057,501.024c-.333.926-.661,1.842-.982,2.742,3.361,3.853,9.4,5.046,13.874,4.774,0,0,.281-.966.808-2.524-5.481-.052-10.75-1.852-13.7-4.992" transform="translate(-2.529 -412.097)" fill="#292e3d" fill-rule="evenodd"/>
            <path id="Path_14064" data-name="Path 14064" d="M82.452,690.678c-.056.192-.11.383-.164.574a61.206,61.206,0,0,0,39.771.032l-.076-.606a99.379,99.379,0,0,1-39.531,0" transform="translate(-67.683 -568.09)" fill="#1a1c29" fill-rule="evenodd"/>
            <path id="Path_14065" data-name="Path 14065" d="M32.257,535.547c-1.171,7.133-3.707,19.284-3.136,24.625,1.492,3.355.4,7.4.517,9.4.074,1.25-1.641.285-1.951-.991-.091-.375-.19-2.174-.785-2.233-1.12-.112-.33,6.244-.442,6.9-.3.8-1.915-.462-2.72-2.376s-2.13-7.067-.366-11.029c.331-7.85-1.168-16.846-.076-26.011a20.716,20.716,0,0,0,8.96,1.723" transform="translate(-18.507 -439.076)" fill="#fabf91" fill-rule="evenodd"/>
            <path id="Path_14066" data-name="Path 14066" d="M35.422,535.547l-.058.349a24.906,24.906,0,0,1-9.016-1.016q.052-.528.114-1.057a20.716,20.716,0,0,0,8.96,1.723" transform="translate(-21.671 -439.076)" fill="#e0a370" fill-rule="evenodd"/>
            <path id="Path_14067" data-name="Path 14067" d="M63.844,787.736c1.005,4.8,13.485,5.844,18.08,3,.12-4.9-2.663-7.751-7.071-8.465a15.963,15.963,0,0,0-3.574-.209c-1.62.066-4.63.391-5.868,2.321a14.837,14.837,0,0,0-1.568,3.353" transform="translate(-52.512 -643.23)" fill="#1a1c29" fill-rule="evenodd"/>
            <path id="Path_14068" data-name="Path 14068" d="M81.308,790.007c-.872,7.76-3.02,15.513-2.718,22.235.806.041,1.253,4.7.713,6.546a15.64,15.64,0,0,0-2.909,5.367c-1.038,2.906-9.752,4.1-9.947-1.116-.1-2.762.855-4.338,1.591-7.025q.379-1.381.852-3.163c-.152-8.191-1.25-15.641-1.44-23.282l-.007-.3,0-.1v-.1l-.006-.3v-.1c-.018-1.37-.01-2.735.041-4.1,1.772-3.778,14.12-3.016,14.175.764-.013.472-.033.964-.06,1.462-.042.71-.21,2.768-.259,3.206Z" transform="translate(-54.648 -643.277)" fill="#ebebeb" fill-rule="evenodd"/>
            <path id="Path_14069" data-name="Path 14069" d="M86.078,785.335c-.04,1.5-.156,3.19-.318,4.668a38.565,38.565,0,0,1-7.468.352,40.573,40.573,0,0,1-6.412-.786,46.724,46.724,0,0,1,.023-5c1.772-3.778,14.12-3.016,14.175.764" transform="translate(-59.076 -643.277)" fill="#fabf91" fill-rule="evenodd"/>
            <path id="Path_14070" data-name="Path 14070" d="M78.59,944.838c-.863,1.133-1.671,1.441-2.031,1.276q-4.6-5.274-7.667-.668-.473,1.783-.852,3.164c-.737,2.687-1.695,4.263-1.592,7.025.195,5.213,8.909,4.022,9.947,1.116a15.634,15.634,0,0,1,2.909-5.367c.54-1.844.093-6.507-.714-6.546" transform="translate(-54.648 -775.873)" fill="#039" fill-rule="evenodd"/>
            <path id="Path_14071" data-name="Path 14071" d="M332.822,489.653h0l-.071.12q4.574-1.028,11.507-5.154a17.912,17.912,0,0,0-.436-2.079,28.094,28.094,0,0,1-11,7.112" transform="translate(-273.691 -396.895)" fill="#e0a370" fill-rule="evenodd"/>
            <path id="Path_14072" data-name="Path 14072" d="M46.753,33.9q1.857-.283,3.993,2.288c4.853-19.746,14.37-9.062,32.212-18.53C84.26,21.062,84.963,25.5,88.9,28.1a18.132,18.132,0,0,1,3.6,8.009q1.768-2.094,3.344-2.227h0Q101.5,12.865,88.7,7.742C69.358-11.473,36.27,8.052,46.753,33.9" transform="translate(-36.805 -0.001)" fill="#333" fill-rule="evenodd"/>
            <path id="Path_14073" data-name="Path 14073" d="M152.515,336.133c1.8,5.941,13.11,6.134,15.039-.055q-.862-.247-1.758-.487l0,.082,0,.006,0,.078c-1.361,4.128-10.333,3.984-11.542,0l0-.069-.005-.015v-.02q-.887.237-1.743.481" transform="translate(-125.445 -276.027)" fill="#292e3d" fill-rule="evenodd"/>
            <path id="Path_14074" data-name="Path 14074" d="M159.8,346.154c3.013,3.136,9.667,3.155,12.595-.189l-.54-.4-.6-.447c-2.487,2.627-7.766,2.609-10.318.2l-.338.251Z" transform="translate(-131.434 -283.863)" fill="#e6e6e6" fill-rule="evenodd"/>
            <path id="Path_14075" data-name="Path 14075" d="M177.432,354.578a10.443,10.443,0,0,0,6.18,0v-1.491a8.713,8.713,0,0,1-6.18.014Z" transform="translate(-145.94 -290.422)" fill="#8cbddb" fill-rule="evenodd"/>
            <path id="Path_14076" data-name="Path 14076" d="M316.41,473.02c4.389-.726,9.728-3.907,13.4-7.987q.7,1.069,1.413,2.187a28.165,28.165,0,0,1-12.577,8.289Z" transform="translate(-260.25 -382.494)" fill="#292e3d" fill-rule="evenodd"/>
            <path id="Path_14077" data-name="Path 14077" d="M113.97,354.849v61.183c-2.1-.189-4.167-.443-6.18-.763V357.03a20.916,20.916,0,0,1,6.18-2.181m6.18,61.547c2.057.059,4.123.058,6.18,0V356.028a10.441,10.441,0,0,1-6.18,0Zm12.36-.373c2.1-.191,4.167-.447,6.18-.768V357.184a19.812,19.812,0,0,0-6.18-2.281Z" transform="translate(-88.658 -291.867)" fill="#99c9e8" fill-rule="evenodd"/>
            <path id="Path_14078" data-name="Path 14078" d="M110.242,345.144l-.167.649-.062-.067c-3.372-2.349-8.742-4.655-15.78-6.645a5.66,5.66,0,0,0,.294-.748c6.894,1.971,12.162,4.245,15.486,6.562ZM79.78,339.138c-7.055,1.984-12.513,4.238-15.886,6.589l-.042.04-.122-.713c.055-.056.11-.11.164-.159,3.324-2.316,8.681-4.544,15.594-6.506a5.243,5.243,0,0,0,.292.749" transform="translate(-52.418 -278.282)" fill="#292e3d" fill-rule="evenodd"/>
            <path id="Path_14079" data-name="Path 14079" d="M248.124,895.746a45.3,45.3,0,0,1-7.909.665,47.856,47.856,0,0,1-5.324-.291q-.093-.6-.178-1.21a46.59,46.59,0,0,0,5.5.318,43.749,43.749,0,0,0,7.973-.695q-.029.607-.064,1.213" transform="translate(-193.054 -735.763)" fill="#99c9e8"/>
            <path id="Path_14080" data-name="Path 14080" d="M86.1,838.491q-.086.605-.179,1.209a48.125,48.125,0,0,1-5.074.263,45,45,0,0,1-8.134-.707q-.035-.607-.064-1.215a43.522,43.522,0,0,0,8.2.738,46.73,46.73,0,0,0,5.253-.289" transform="translate(-59.754 -689.298)" fill="#99c9e8"/>
            <path id="Path_14081" data-name="Path 14081" d="M256.538,556.66a17.539,17.539,0,0,0-6.185-2.416c-.406.056-1.057.329-.556.857s2.584,1.481,2.18,1.8c-.607.483-3.282-.427-3.868.012-.312.233-.554.594.045,1.076a12.307,12.307,0,0,0,2.5,1.2c.607.239-1.3.143-2.1.453-.508.2-.6.544-.162.792.509.288,1.731.133,2.774.625.507.239-1.73.5-2.414,1.023-.162.124-.482.536-.118.656,1.235.409,4.44-.142,5.442.773a3.933,3.933,0,0,0,2.959-.083q-.263-3.623-.5-6.772" transform="translate(-203.807 -455.871)" fill="#b3b3b3" fill-rule="evenodd"/>
            <path id="Path_14082" data-name="Path 14082" d="M253.84,555.286a13.149,13.149,0,0,0-3.487-1.043c-.406.056-1.057.329-.556.858s2.584,1.48,2.18,1.8c-.607.483-3.282-.427-3.868.012-.312.233-.553.594.045,1.076a12.3,12.3,0,0,0,2.5,1.2c.607.239-1.3.143-2.1.453-.508.2-.6.544-.162.792.509.288,1.731.133,2.774.625.507.239-1.73.5-2.414,1.023-.162.124-.482.536-.118.656,1.15.381,4.009-.07,5.206.605Z" transform="translate(-203.807 -455.87)" fill="#8cbddb" fill-rule="evenodd"/>
            <path id="Path_14083" data-name="Path 14083" d="M262.938,489.653h0l-5.03,8.462c-3.131-2.206-5.633-3.407-7.555-3.8-.406.026-1.057.251-.556.817s2.584,1.669,2.18,1.961c-.607.439-3.282-.666-3.868-.271-.312.211-.554.553.045,1.08a13.424,13.424,0,0,0,2.5,1.383c.607.283-1.3.049-2.1.3-.508.161-.6.5-.162.78.509.325,1.731.259,2.774.827.507.276-1.73.373-2.414.847-.162.112-.482.5-.118.647,1.235.5,4.44.182,5.442,1.17,2.062.923,3.978-.067,5.364-1.436,6.142-4.968,10.963-9.119,14.847-13.985a12.138,12.138,0,0,0-.349-5.9,28.094,28.094,0,0,1-11,7.112" transform="translate(-203.807 -396.895)" fill="#fabf91" fill-rule="evenodd"/>
          </g>
        </g>
      </g>
      <text id="_2nd" data-name="2nd" transform="translate(87 408)" font-size="15" font-family="Barlow-Bold, Barlow" font-weight="700"><tspan x="-12" y="0">2nd</tspan></text>
    </g>
  </g>
</svg>
