<svg xmlns="http://www.w3.org/2000/svg" xmlns:xlink="http://www.w3.org/1999/xlink" width="151.25" height="151.25" viewBox="0 0 151.25 151.25">
  <defs>
    <linearGradient id="linear-gradient" x1="-0.668" y1="1.052" x2="-0.666" y2="1.052" gradientUnits="objectBoundingBox">
      <stop offset="0" stop-color="#de007a"/>
      <stop offset="1" stop-color="#1a1818"/>
    </linearGradient>
    <clipPath id="clip-path">
      <path id="Path_13934" data-name="Path 13934" d="M230.914,263.856a75.625,75.625,0,1,0,75.624-75.624,75.711,75.711,0,0,0-75.624,75.624" transform="translate(-230.914 -188.232)" fill="#fff"/>
    </clipPath>
    <linearGradient id="linear-gradient-2" x1="0.5" x2="0.5" y2="1" gradientUnits="objectBoundingBox">
      <stop offset="0" stop-color="#ffda4e"/>
      <stop offset="1" stop-color="#fff"/>
    </linearGradient>
    <clipPath id="clip-path-2">
      <rect id="Rectangle_256" data-name="Rectangle 256" width="144.877" height="144.877" rx="72.439" transform="translate(5221.643 80.608) rotate(-0.673)" fill="url(#linear-gradient)"/>
    </clipPath>
    <clipPath id="clip-path-3">
      <rect id="Rectangle_255" data-name="Rectangle 255" width="92.967" height="273.817" transform="translate(0 0)" fill="none"/>
    </clipPath>
  </defs>
  <g id="player-1st" transform="translate(-139.147 -263.368)">
    <g id="Group_735" data-name="Group 735" transform="translate(139.147 263.368)">
      <g id="Group_734" data-name="Group 734" clip-path="url(#clip-path)">
        <rect id="Rectangle_228" data-name="Rectangle 228" width="151.25" height="151.25" transform="translate(0 0)" fill="#fff"/>
      </g>
    </g>
    <rect id="Rectangle_229" data-name="Rectangle 229" width="144.877" height="144.877" rx="72.439" transform="translate(141.342 267.507) rotate(-0.673)" fill="url(#linear-gradient-2)"/>
    <path id="Path_13935" data-name="Path 13935" d="M240.831,269.757a71.6,71.6,0,1,0,71.6-71.6,71.238,71.238,0,0,0-71.6,71.6" transform="translate(-97.662 69.238)" fill="none"/>
    <g id="Mask_Group_5" data-name="Mask Group 5" transform="translate(-5079.927 187)" clip-path="url(#clip-path-2)">
      <g id="Group_765" data-name="Group 765" transform="translate(5248.444 118.566)">
        <g id="Group_764" data-name="Group 764" transform="translate(0 -16.999)" clip-path="url(#clip-path-3)">
          <path id="Path_13975" data-name="Path 13975" d="M22.3,985.884a22.3,22.3,0,1,1-22.3,22.3,22.3,22.3,0,0,1,22.3-22.3" transform="translate(0 -756.665)" fill="#dee0e3" fill-rule="evenodd"/>
          <path id="Path_13976" data-name="Path 13976" d="M22.3,985.884a22.224,22.224,0,0,1,15.449,6.22,22.3,22.3,0,0,1-34.241,28.089A22.3,22.3,0,0,1,22.3,985.884" transform="translate(0 -756.665)" fill="#edf2f5" fill-rule="evenodd"/>
          <path id="Path_13977" data-name="Path 13977" d="M20.553,1028.705s-.526.585-1.453,1.546a22.25,22.25,0,0,1-13.117-6.872c.071-.341.138-.662.2-.946.085-.412.164-.8.232-1.134l.054-.271.263.079c.009,0,2.624.81,7.448,2.281l.055.018.041.037s1.386,1.259,6.245,4.895l.219.164ZM22.3,985.883a22.625,22.625,0,0,1,2.686.161c.709,1.169,1.111,1.877,1.112,1.879l.133.228-.236.12a44.681,44.681,0,0,1-7.518,3.317l-.022.005-.027,0c-4.882.248-8,.157-8.009.157l-.257-.005.012-.256.095-2.087A22.2,22.2,0,0,1,22.3,985.883m13.525,4.57a22.306,22.306,0,0,1,8.2,12.694c-.734.951-1.262,1.587-1.264,1.589l-.16.2-.2-.164a45.978,45.978,0,0,1-6.046-5.659l-.017-.02-.011-.024a28.812,28.812,0,0,1-2.624-7.63l-.029-.2.189-.07c.423-.158.768-.286,1.05-.389q.362-.133.9-.328M43.189,1016a22.372,22.372,0,0,1-9.6,11.417c-.273-.145-.547-.291-.817-.436s-.606-.326-.977-.527l-.174-.095.051-.19a27.282,27.282,0,0,1,3.628-7.25l.017-.025.023-.021a65.083,65.083,0,0,1,6.321-4.745l.2-.141.145.2s.466.668,1.182,1.813M.362,1012.2a22.455,22.455,0,0,1-.362-4.02,22.2,22.2,0,0,1,2.8-10.826c1.327-.189,2.132-.282,2.134-.282l.269-.042.018.274a53.437,53.437,0,0,1,.148,8.222l0,.026-.011.031c-1.682,4.528-2.715,7.4-2.718,7.409l-.1.261-.249-.121-1.045-.506Zm19.757-15.048,10.071,4.368.163.071-.012.175c0,.011-.222,3.863-1.352,11.275l-.024.155-.151.046c-.009,0-3.359,1.031-10.453,2.569l-.162.035-.1-.136c-.008-.011-2.789-3.961-6.08-9.863l-.089-.159.124-.133,7.779-8.344.12-.13Z" transform="translate(0 -756.664)" fill="#333" fill-rule="evenodd"/>
          <path id="Path_13978" data-name="Path 13978" d="M33.936,994.966a20.428,20.428,0,0,1,7.7,3.187l-.159.059.012.084a20.24,20.24,0,0,0-7.557-3.126l.093-.047ZM26.082,1022.8l-3.984,7.64-.028-.025-.041-.037-.055-.018-.052-.015,3.989-7.649.086.122ZM19.8,1012.79l-6.657-.213.007-.021.011-.031,0-.026s0-.04.012-.121l6.616.211-.066.07Zm6.57-14.259,1.48,5.565-.1-.042-.093.1-1.485-5.586.049,0,.027,0,.022-.005.1-.028m11.7,10,6.006-2.591.049.1.011.023.017.021.024.03-6.044,2.607.011-.16Zm-1.3,11.525,6.414,5.735-.055.05-.023.02-.017.025-.037.055-6.418-5.737.118-.036Zm13.607-8.162a20.706,20.706,0,0,1-.618,9.209l-.107-.148-.073.051a20.5,20.5,0,0,0,.562-9.309l.056.047Zm-10.833,21.5a20.462,20.462,0,0,1-9.456,2.3q-.86,0-1.7-.07l.141-.156-.05-.038q.8.063,1.613.063a20.249,20.249,0,0,0,9.35-2.271l-.027.1Zm-25.33-5.2a20.482,20.482,0,0,1-4.062-8.059l.18.088.029-.079a20.273,20.273,0,0,0,3.969,7.874l-.075-.023Zm-1.405-24.166a20.655,20.655,0,0,1,5.149-5.464l-.007.149.14,0a20.434,20.434,0,0,0-5.09,5.386L13,1004Z" transform="translate(-7.799 -763.635)" fill="#999"/>
          <path id="Path_13979" data-name="Path 13979" d="M50.334,76.041l.023.248q-3.241-3.9-5.994-2.786c-5.58,2.262-1.169,15.344,8.483,14.232,8.47,22.368,41.116,22.116,49.724.009,9.586,1.016,13.951-11.987,8.389-14.241q-2.714-1.1-5.906,2.681c.286-24.627-11.221-38.126-28.116-38.34-14.01-.177-27.754,11.8-26.6,38.2" transform="translate(-32.167 -29.044)" fill="#fabf91" fill-rule="evenodd"/>
          <path id="Path_13980" data-name="Path 13980" d="M50.358,193.19q-3.241-3.9-5.994-2.786c-5.58,2.262-1.169,15.344,8.483,14.232a43.687,43.687,0,0,1-2.488-11.447" transform="translate(-32.166 -145.945)" fill="#f0b585" fill-rule="evenodd"/>
          <path id="Path_13981" data-name="Path 13981" d="M305.291,193.085q3.191-3.782,5.906-2.681c5.562,2.255,1.2,15.257-8.389,14.241a41.619,41.619,0,0,0,2.47-10.7c.007-.289.01-.575.013-.86" transform="translate(-232.405 -145.945)" fill="#f0b585" fill-rule="evenodd"/>
          <path id="Path_13982" data-name="Path 13982" d="M162.495,319.839q-.1,2.9-.158,3.879c1.583,5.219,13.336,5.407,15.12,0l-.176-3.816a28.438,28.438,0,0,1-14.785-.063" transform="translate(-124.593 -245.476)" fill="#f0b585" fill-rule="evenodd"/>
          <path id="Path_13983" data-name="Path 13983" d="M68.113,690.076a127.527,127.527,0,0,0-4.575,28.254c.6,6.673,17.592,8.2,23.755,4.387.314-1.445,5.238-10.874,6.785-10.588,1.393,3.769,2.517,8.8,3.259,16.2,10.24,1.178,18.357-.363,26.422-4.4q-.345-5.783-3.862-33.85l-.178-.182H68.388Z" transform="translate(-48.765 -529.493)" fill="#292e3d" fill-rule="evenodd"/>
          <path id="Path_13984" data-name="Path 13984" d="M162.882,320.689a13,13,0,0,0,14.862.2l-.045-.982a28.439,28.439,0,0,1-14.785-.063Z" transform="translate(-125.012 -245.477)" fill="#c98a57" fill-rule="evenodd"/>
          <path id="Path_13985" data-name="Path 13985" d="M231.141,845.325c.283,12.214,4.491,24.542,4.013,35.18-1.056.054-1.642,6.159-.934,8.575a20.486,20.486,0,0,1,3.811,7.031c1.359,3.807,12.774,5.368,13.029-1.461.135-3.618-1.12-5.684-2.085-9.2q-.5-1.809-1.116-4.144c.259-13.893,2.594-26.159,1.734-39.45a42.883,42.883,0,0,1-18.452,3.471" transform="translate(-177.4 -646.122)" fill="#ebebeb" fill-rule="evenodd"/>
          <path id="Path_13986" data-name="Path 13986" d="M231.141,845.325c.047,2.016.2,4.035.423,6.048a50.466,50.466,0,0,0,9.782.462,53.33,53.33,0,0,0,8.4-1.03c.073-2.952.043-5.924-.152-8.951a42.883,42.883,0,0,1-18.452,3.471" transform="translate(-177.4 -646.122)" fill="#fabf91" fill-rule="evenodd"/>
          <path id="Path_13987" data-name="Path 13987" d="M231.141,845.325c0,.223.027.843.034,1.066a53.909,53.909,0,0,0,18.52-2.62c-.023-.481-.072-1.434-.1-1.917a42.883,42.883,0,0,1-18.452,3.471" transform="translate(-177.4 -646.122)" fill="#e0a370" fill-rule="evenodd"/>
          <path id="Path_13988" data-name="Path 13988" d="M244.295,1001.438c1.131,1.484,2.189,1.888,2.661,1.672q6.023-6.91,10.043-.875.62,2.335,1.117,4.145c.965,3.519,2.22,5.584,2.085,9.2-.256,6.829-11.67,5.268-13.029,1.461a20.491,20.491,0,0,0-3.811-7.03c-.708-2.416-.122-8.524.935-8.575" transform="translate(-186.541 -767.055)" fill="#039" fill-rule="evenodd"/>
          <path id="Path_13989" data-name="Path 13989" d="M40.111,335.667c-10.168,2.723-18,5.867-22.718,9.155-3.814,3.471-9.59,19.6-14.317,32.822,4.4,5.047,12.314,6.61,18.175,6.254,0,0,1.363-4.693,3.782-10.591-.758,8.574-1.641,20.886-3.324,44.841a130.22,130.22,0,0,0,51.783,0q-2.524-35.932-3.661-48.794l9.022,10.054a36.9,36.9,0,0,0,16.475-10.858q-9.839-15.4-17.521-23.727c-4.719-3.288-12.425-6.51-22.593-9.233l.01.217c-1.783,5.407-13.536,5.219-15.12,0Z" transform="translate(-2.36 -257.563)" fill="#ebebeb" fill-rule="evenodd"/>
          <path id="Path_13990" data-name="Path 13990" d="M4.361,501.024c-.436,1.213-.866,2.414-1.286,3.591,4.4,5.047,12.314,6.609,18.175,6.254,0,0,.368-1.265,1.059-3.306-7.18-.068-14.082-2.426-17.947-6.539" transform="translate(-2.36 -384.535)" fill="#292e3d" fill-rule="evenodd"/>
          <path id="Path_13991" data-name="Path 13991" d="M82.5,690.678c-.073.251-.145.5-.215.751a80.176,80.176,0,0,0,52.1.042l-.1-.793a124.455,124.455,0,0,1-25.892,2.6,124.452,124.452,0,0,1-25.892-2.6" transform="translate(-63.156 -530.094)" fill="#1a1c29" fill-rule="evenodd"/>
          <path id="Path_13992" data-name="Path 13992" d="M35.281,536.081c-1.535,9.344-4.856,25.261-4.109,32.257,1.955,4.395.523,9.691.678,12.308.1,1.638-2.15.374-2.555-1.3-.119-.491-.249-2.848-1.029-2.925-1.468-.146-.432,8.179-.579,9.034-.387,1.047-2.508-.6-3.563-3.113s-2.79-9.257-.479-14.447c.434-10.283-1.53-22.067-.1-34.073a27.138,27.138,0,0,0,11.736,2.257" transform="translate(-17.269 -409.709)" fill="#fabf91" fill-rule="evenodd"/>
          <path id="Path_13993" data-name="Path 13993" d="M38.234,536.081l-.076.458q-7.636.218-11.81-1.33.068-.692.15-1.385a27.138,27.138,0,0,0,11.736,2.257" transform="translate(-20.222 -409.709)" fill="#e0a370" fill-rule="evenodd"/>
          <path id="Path_13994" data-name="Path 13994" d="M63.844,789.5c1.317,6.284,17.664,7.656,23.684,3.93.157-6.422-3.488-10.153-9.263-11.089a20.911,20.911,0,0,0-4.681-.274c-2.122.086-6.065.512-7.687,3.041a19.436,19.436,0,0,0-2.053,4.392" transform="translate(-49 -600.21)" fill="#1a1c29" fill-rule="evenodd"/>
          <path id="Path_13995" data-name="Path 13995" d="M85.917,792.46c-1.142,10.164-3.956,20.322-3.56,29.127,1.056.054,1.642,6.159.934,8.575a20.487,20.487,0,0,0-3.811,7.031c-1.359,3.807-12.774,5.368-13.029-1.462-.136-3.619,1.12-5.683,2.085-9.2q.5-1.808,1.117-4.144c-.2-10.73-1.638-20.489-1.886-30.5l-.01-.39,0-.13v-.009l0-.121-.007-.39v-.13c-.024-1.794-.014-3.583.053-5.376,2.321-4.949,18.5-3.951,18.568,1-.017.618-.043,1.262-.078,1.915-.055.93-.276,3.625-.339,4.2Z" transform="translate(-50.993 -600.253)" fill="#ebebeb" fill-rule="evenodd"/>
          <path id="Path_13996" data-name="Path 13996" d="M90.5,786.341c-.053,1.959-.2,4.179-.417,6.115a50.523,50.523,0,0,1-9.782.462,53.151,53.151,0,0,1-8.4-1.03,61.206,61.206,0,0,1,.03-6.547c2.321-4.949,18.5-3.951,18.568,1" transform="translate(-55.125 -600.253)" fill="#fabf91" fill-rule="evenodd"/>
          <path id="Path_13997" data-name="Path 13997" d="M82.356,945.315c-1.131,1.484-2.188,1.888-2.661,1.672q-6.023-6.908-10.043-.875-.62,2.335-1.117,4.145c-.965,3.519-2.22,5.584-2.085,9.2.255,6.829,11.67,5.268,13.029,1.462a20.479,20.479,0,0,1,3.811-7.031c.708-2.416.121-8.524-.935-8.575" transform="translate(-50.993 -723.981)" fill="#039" fill-rule="evenodd"/>
          <path id="Path_13998" data-name="Path 13998" d="M332.844,491.858h0l-.093.157q5.991-1.347,15.074-6.751a23.472,23.472,0,0,0-.571-2.723,36.8,36.8,0,0,1-14.409,9.317" transform="translate(-255.386 -370.35)" fill="#e0a370" fill-rule="evenodd"/>
          <path id="Path_13999" data-name="Path 13999" d="M47.374,44.4q2.433-.37,5.231,3c6.357-25.866,18.824-11.871,42.2-24.273,1.707,4.462,2.627,10.276,7.779,13.677q3.146,3.583,4.721,10.491,2.315-2.744,4.38-2.917h0q7.413-27.526-9.351-34.237C76.986-15.03,33.642,10.548,47.374,44.4" transform="translate(-34.343 -0.001)" fill="#333" fill-rule="evenodd"/>
          <path id="Path_14000" data-name="Path 14000" d="M152.515,336.3c2.359,7.783,17.174,8.035,19.7-.072q-1.13-.323-2.3-.638l0,.107,0,.007,0,.1c-1.783,5.407-13.536,5.219-15.119,0l0-.09-.007-.02v-.027q-1.162.311-2.283.63" transform="translate(-117.055 -257.566)" fill="#292e3d" fill-rule="evenodd"/>
          <path id="Path_14001" data-name="Path 14001" d="M159.8,346.475c3.947,4.109,12.663,4.133,16.5-.247l-.707-.524-.792-.586c-3.258,3.441-10.173,3.418-13.515.258l-.443.328Z" transform="translate(-122.643 -264.878)" fill="#e6e6e6" fill-rule="evenodd"/>
          <path id="Path_14002" data-name="Path 14002" d="M177.432,355.039a13.68,13.68,0,0,0,8.1.006v-1.953a11.414,11.414,0,0,1-8.1.018Z" transform="translate(-136.179 -270.998)" fill="#8cbddb" fill-rule="evenodd"/>
          <path id="Path_14003" data-name="Path 14003" d="M316.41,475.495c5.75-.951,12.743-5.119,17.55-10.462q.915,1.4,1.851,2.865a36.894,36.894,0,0,1-16.475,10.858Z" transform="translate(-242.844 -356.912)" fill="#292e3d" fill-rule="evenodd"/>
          <path id="Path_14004" data-name="Path 14004" d="M115.886,354.849v80.146c-2.751-.247-5.458-.581-8.1-1v-76.29a27.4,27.4,0,0,1,8.1-2.857m8.1,80.623c2.694.078,5.4.077,8.1,0V356.393a13.677,13.677,0,0,1-8.1-.006Zm16.191-.489c2.751-.25,5.459-.586,8.1-1.007V357.908a25.954,25.954,0,0,0-8.1-2.987Z" transform="translate(-82.729 -272.346)" fill="#99c9e8" fill-rule="evenodd"/>
          <path id="Path_14006" data-name="Path 14006" d="M124.658,347.255l-.219.851-.081-.088c-4.417-3.077-11.451-6.1-20.671-8.7a7.412,7.412,0,0,0,.385-.98c9.031,2.582,15.931,5.561,20.286,8.6Zm-39.9-7.868c-9.241,2.6-16.392,5.552-20.81,8.631l-.055.053-.16-.934c.073-.073.144-.144.215-.208,4.354-3.034,11.371-5.952,20.428-8.523a6.869,6.869,0,0,0,.382.982" transform="translate(-48.912 -259.67)" fill="#292e3d" fill-rule="evenodd"/>
          <path id="Path_14007" data-name="Path 14007" d="M252.281,896.122a59.346,59.346,0,0,1-10.36.871,62.7,62.7,0,0,1-6.974-.381q-.121-.791-.233-1.585a61.038,61.038,0,0,0,7.207.416,57.313,57.313,0,0,0,10.444-.91q-.038.8-.084,1.589" transform="translate(-180.142 -686.553)" fill="#99c9e8"/>
          <path id="Path_14008" data-name="Path 14008" d="M90.268,838.63q-.113.793-.234,1.584a63.039,63.039,0,0,1-6.647.345,58.942,58.942,0,0,1-10.655-.926q-.046-.795-.084-1.591a57.013,57.013,0,0,0,10.739.967,61.216,61.216,0,0,0,6.881-.379" transform="translate(-55.757 -643.196)" fill="#99c9e8"/>
          <path id="Path_14009" data-name="Path 14009" d="M259.25,557.409a22.974,22.974,0,0,0-8.1-3.165c-.531.073-1.385.431-.728,1.123s3.385,1.94,2.856,2.361c-.8.632-4.3-.559-5.067.015-.408.305-.725.778.059,1.41a16.121,16.121,0,0,0,3.27,1.573c.8.313-1.706.188-2.747.594-.666.26-.785.713-.213,1.038.667.377,2.267.175,3.634.818.664.313-2.266.655-3.162,1.341-.212.163-.632.7-.154.859,1.617.535,5.816-.186,7.129,1.013a5.153,5.153,0,0,0,3.876-.108q-.345-4.746-.652-8.871" transform="translate(-190.176 -425.382)" fill="#b3b3b3" fill-rule="evenodd"/>
          <path id="Path_14010" data-name="Path 14010" d="M255.716,555.609a17.223,17.223,0,0,0-4.568-1.366c-.532.073-1.385.431-.728,1.123s3.385,1.939,2.855,2.361c-.795.632-4.3-.559-5.067.016-.408.305-.725.778.06,1.41a16.1,16.1,0,0,0,3.27,1.573c.8.313-1.706.188-2.747.594-.665.259-.785.713-.212,1.038.667.377,2.267.174,3.634.818.664.313-2.266.655-3.162,1.34-.212.162-.632.7-.154.859,1.506.5,5.252-.092,6.82.793Z" transform="translate(-190.176 -425.381)" fill="#8cbddb" fill-rule="evenodd"/>
          <path id="Path_14011" data-name="Path 14011" d="M267.634,491.858h0l-6.59,11.085c-4.1-2.89-7.379-4.464-9.9-4.972-.531.034-1.385.329-.728,1.07s3.385,2.187,2.856,2.569c-.8.575-4.3-.873-5.067-.355-.408.276-.725.725.059,1.414a17.583,17.583,0,0,0,3.27,1.812c.8.371-1.706.064-2.747.393-.666.211-.785.656-.212,1.022.667.426,2.267.34,3.634,1.084.664.362-2.266.489-3.162,1.11-.212.147-.632.654-.154.847,1.617.653,5.816.239,7.129,1.533,2.7,1.209,5.211-.088,7.027-1.882,8.045-6.508,14.361-11.945,19.448-18.319a15.9,15.9,0,0,0-.458-7.729,36.8,36.8,0,0,1-14.409,9.317" transform="translate(-190.176 -370.35)" fill="#fabf91" fill-rule="evenodd"/>
        </g>
      </g>
    </g>
    <text id="_1st" data-name="1st" transform="translate(215 402)" font-size="20" font-family="Barlow-Bold, Barlow" font-weight="700"><tspan x="-12" y="0">1st</tspan></text>
  </g>
</svg>
