<svg id="tc_logo" xmlns="http://www.w3.org/2000/svg" xmlns:xlink="http://www.w3.org/1999/xlink" width="60.507" height="53" viewBox="0 0 60.507 53">
  <defs>
    <clipPath id="clip-path">
      <rect id="Rectangle_1" data-name="Rectangle 1" width="60.507" height="53" fill="none"/>
    </clipPath>
  </defs>
  <g id="Group_1" data-name="Group 1" clip-path="url(#clip-path)">
    <path id="Path_1" data-name="Path 1" d="M34.84,20.1c4.658,0,9.332-.254,13.969.053,9.806.648,17.3,5.189,22.019,13.954.142.264.241.3.541.226a4.343,4.343,0,0,1,2.141,0,1.63,1.63,0,0,1,1.145,1.864,2.108,2.108,0,0,1-.1.448c-.119.291.005.347.265.328a1.919,1.919,0,0,1,1.315.318,1.688,1.688,0,0,1,.638,1.8c-.062.362-.152.719-.242,1.075a1.781,1.781,0,0,1-1.681,1.389c-.353.019-.707.022-1.06.007-.23-.01-.294.084-.359.294a7.473,7.473,0,0,0-.124,2.422,21.307,21.307,0,0,1-1.448,8.412,24.982,24.982,0,0,1-16.79,15.26A27.876,27.876,0,0,1,30.551,64.4a23.23,23.23,0,0,1-9.982-14.127,18.442,18.442,0,0,1-.564-4.5q.02-12.569,0-25.139c0-.429.082-.563.543-.561,4.765.019,9.531.012,14.3.012V20.1" transform="translate(-18.155 -18.157)" fill="#303291"/>
    <path id="Path_2" data-name="Path 2" d="M25.4,1.842c1.753,0,3.5.036,5.249.151,9.806.648,17.3,5.189,22.019,13.954.1.187.18.26.324.26a.937.937,0,0,0,.217-.034,4.578,4.578,0,0,1,1.1-.136,4.128,4.128,0,0,1,1.045.132A1.629,1.629,0,0,1,56.5,18.034a2.109,2.109,0,0,1-.1.448c-.106.259-.019.331.184.331l.081,0c.072-.005.144-.008.216-.008a1.8,1.8,0,0,1,1.1.325,1.688,1.688,0,0,1,.638,1.8c-.062.362-.151.719-.242,1.075A1.781,1.781,0,0,1,56.7,23.392q-.3.016-.6.017-.229,0-.458-.01h-.033c-.2,0-.265.095-.326.3a7.478,7.478,0,0,0-.124,2.422,21.308,21.308,0,0,1-1.448,8.412,24.983,24.983,0,0,1-16.79,15.26,30.509,30.509,0,0,1-8.872,1.371A27.842,27.842,0,0,1,12.4,46.243,23.231,23.231,0,0,1,2.413,32.116a18.447,18.447,0,0,1-.564-4.5q.02-12.569,0-25.139c0-.426.081-.562.534-.562h.009q4.035.016,8.07.013h6.226v.016c2.9,0,5.816-.1,8.72-.1M25.4,0c-1.468,0-2.954.025-4.391.05-.817.014-1.65.028-2.483.037v0H10.458C8.089.084,5.279.083,2.4.071H2.379A2.35,2.35,0,0,0,.647.721,2.406,2.406,0,0,0,0,2.478C.014,11.7.015,19.921,0,27.611a20.387,20.387,0,0,0,.619,4.95A25.041,25.041,0,0,0,11.372,47.776,29.72,29.72,0,0,0,28.045,53a32.472,32.472,0,0,0,9.408-1.451,28.469,28.469,0,0,0,10.912-6A27.2,27.2,0,0,0,55.424,35.2,23.217,23.217,0,0,0,57,26.072c0-.175-.011-.343-.018-.506-.005-.119-.01-.235-.014-.347a3.621,3.621,0,0,0,3.2-2.764c.1-.4.2-.8.271-1.215a3.5,3.5,0,0,0-1.369-3.6,3.441,3.441,0,0,0-.741-.412,3.533,3.533,0,0,0-.468-1.305,3.37,3.37,0,0,0-2.04-1.535,5.989,5.989,0,0,0-1.513-.192q-.245,0-.491.019A27.735,27.735,0,0,0,44.55,4.366,29.248,29.248,0,0,0,30.775.155C29.171.049,27.465,0,25.4,0" transform="translate(0)" fill="#fff"/>
    <path id="Path_3" data-name="Path 3" d="M452.9,248.955a11.768,11.768,0,0,1,1.748.015,2.552,2.552,0,0,1,2.179,2.357,5.755,5.755,0,0,1-2.3,5.621,3.4,3.4,0,0,1-2.115.666c-.676,0-1.353,0-2.027.036a2.835,2.835,0,0,1-3.189-2.945,6.086,6.086,0,0,1,1.647-4.5,3.781,3.781,0,0,1,2.95-1.273c.368.011.737,0,1.106,0,0,.006,0,.012,0,.018m-1.607,7.013a1.632,1.632,0,0,0,1.751-.659,5.107,5.107,0,0,0,1.289-3.716,1.021,1.021,0,0,0-.486-.8,2.67,2.67,0,0,0-2.554.2,5.072,5.072,0,0,0-1.55,3.476c-.071,1.064.306,1.431,1.367,1.484l.183.012" transform="translate(-405.933 -225.997)" fill="#fafbfb"/>
    <path id="Path_4" data-name="Path 4" d="M264.573,257.5a9.634,9.634,0,0,1-1.656-.037,2.152,2.152,0,0,1-1.89-2.928c.241-.821.533-1.628.813-2.437.341-.984.707-1.959,1.032-2.947a.461.461,0,0,1,.555-.381c.4.029.8,0,1.2.006.662.006.926.347.717.988-.408,1.251-.842,2.493-1.266,3.738-.158.463-.327.923-.475,1.389-.179.564.04.887.625.947,1.221.125,1.5-.066,1.9-1.215.635-1.837,1.294-3.666,1.929-5.5.089-.257.2-.367.483-.349.413.026.83,0,1.245,0,.666,0,.938.344.731.977-.413,1.265-.848,2.522-1.283,3.78-.225.65-.462,1.3-.7,1.94a3.01,3.01,0,0,1-2.893,2.025c-.353.005-.707,0-1.06,0" transform="translate(-236.831 -225.854)" fill="#fafbfb"/>
    <path id="Path_5" data-name="Path 5" d="M92.562,258.422a6.672,6.672,0,0,0-1.887,3.775,2.386,2.386,0,0,0,.356,2.06,1.608,1.608,0,0,0,1.306.56c1.175,0,1.177.006,1.586-1.076.195-.516.383-1.034.571-1.552.009-.026,0-.06-.009-.126-.269,0-.542.008-.814,0-.444-.016-.651-.217-.641-.6.014-.552.226-.815.653-.815,1.214,0,2.428.013,3.642-.011.4-.008.416.1.292.437q-.885,2.389-1.727,4.794a.516.516,0,0,1-.6.4c-1.275-.019-2.553-.052-3.826,0a3.081,3.081,0,0,1-3.367-3.245,7.231,7.231,0,0,1,1.19-4.271.622.622,0,0,1,.592-.338c.855.02,1.71.007,2.679.007" transform="translate(-79.969 -234.609)" fill="#fafbfb"/>
    <path id="Path_6" data-name="Path 6" d="M170.36,97.538c-.434,1.246-.825,2.37-1.216,3.493-.171.491-.348.98-.5,1.476a.4.4,0,0,1-.45.342c-.691-.019-1.383-.013-2.074,0-.291.005-.335-.069-.222-.343q1.521-3.7,3.014-7.4a.332.332,0,0,1,.366-.252c.722.011,1.445.013,2.167,0,.211,0,.291.088.362.265q1.484,3.71,2.985,7.414c.109.268.032.321-.219.318-.738-.007-1.476-.015-2.213,0-.263.006-.331-.124-.4-.336-.513-1.618-1.037-3.233-1.6-4.974" transform="translate(-150.536 -86.11)" fill="#fafbfb"/>
    <path id="Path_7" data-name="Path 7" d="M337.379,97.505c-.439,1.262-.834,2.4-1.23,3.539-.171.491-.36.977-.507,1.476a.366.366,0,0,1-.428.3c-.676-.012-1.353-.021-2.028,0-.345.011-.391-.074-.262-.386.923-2.236,1.829-4.479,2.746-6.718.365-.893.371-.89,1.314-.89.461,0,.923.014,1.383-.006a.415.415,0,0,1,.473.311q1.451,3.648,2.932,7.285c.134.329.087.419-.276.406-.675-.024-1.353-.023-2.028,0a.443.443,0,0,1-.513-.38c-.5-1.606-1.019-3.205-1.575-4.942" transform="translate(-302.145 -86.087)" fill="#fafbfb"/>
    <path id="Path_8" data-name="Path 8" d="M369.206,248.84c.63,0,1.261.01,1.891,0,.308-.007.438.017.314.4-.5,1.525-.526,1.26-1.756,1.278a7.376,7.376,0,0,1-1.105-.022,1.869,1.869,0,0,0-1.851.875,5.418,5.418,0,0,0-1.125,3.2,1.225,1.225,0,0,0,1.361,1.368c.523,0,1.045-.006,1.568,0,.621.01.861.338.7.928-.2.7-.2.7-.9.7-.738,0-1.476,0-2.213,0a2.761,2.761,0,0,1-3.033-2.718,5.991,5.991,0,0,1,1.736-4.821,3.771,3.771,0,0,1,2.808-1.172c.538.006,1.076,0,1.614,0v-.014" transform="translate(-329.535 -225.913)" fill="#fafbfb"/>
    <path id="Path_9" data-name="Path 9" d="M93.868,94.834c1.137,0,2.275.008,3.412-.006.292,0,.414.067.395.381-.027.443-.022.89,0,1.334.01.258-.068.348-.335.339-.568-.019-1.138.015-1.705-.014-.337-.017-.44.069-.435.423.021,1.688,0,3.376.019,5.063.005.392-.12.494-.492.477-.6-.028-1.2-.027-1.8,0-.356.016-.473-.079-.468-.454.021-1.688,0-3.376.019-5.063,0-.371-.105-.464-.459-.446-.567.029-1.137,0-1.705.013-.245.007-.319-.077-.312-.315.014-.46.018-.921,0-1.38-.013-.288.091-.362.369-.359,1.168.014,2.336.006,3.5.006" transform="translate(-81.69 -86.092)" fill="#fafbfb"/>
    <path id="Path_10" data-name="Path 10" d="M260.487,94.8c1.153,0,2.305.008,3.457-.005.27,0,.387.052.37.351a10.689,10.689,0,0,0,0,1.334c.022.326-.117.376-.4.367-.537-.018-1.077.016-1.613-.012-.352-.019-.467.073-.462.446.022,1.657-.008,3.314.021,4.971.008.458-.138.573-.57.547a17.906,17.906,0,0,0-1.8,0c-.312.012-.381-.1-.378-.391.014-1.626.007-3.252.006-4.879,0-.684,0-.684-.708-.684-.461,0-.923-.017-1.383.005-.291.014-.414-.057-.393-.374a9.851,9.851,0,0,0,0-1.242c-.02-.332.072-.449.431-.441,1.137.025,2.274.009,3.411.01" transform="translate(-232.961 -86.06)" fill="#fafbfb"/>
    <path id="Path_11" data-name="Path 11" d="M189.152,257.625c-.814,0-1.627,0-2.441,0-.664,0-.945-.354-.728-.979.872-2.511,1.767-5.014,2.642-7.524a.311.311,0,0,1,.362-.247c.46.01.921-.006,1.381,0,.622.012.88.337.684.929-.593,1.8-1.207,3.591-1.82,5.382-.273.8-.281.795.56.795.6,0,1.2-.006,1.8,0,.54.007.776.306.675.836-.009.045-.013.091-.024.136-.174.669-.174.669-.878.669h-2.211" transform="translate(-168.758 -225.948)" fill="#fafbfb"/>
    <path id="Path_12" data-name="Path 12" d="M541.209,192.586a7.466,7.466,0,0,1,.875.007c.33.039.423-.131.475-.4.122-.631.259-1.258.384-1.888.058-.3.2-.462.529-.446.307.015.614.007.921,0s.4.136.332.436c-.145.626-.257,1.26-.407,1.884-.073.306-.044.434.324.415.613-.031,1.229.005,1.843-.009.361-.008.469.152.4.48,0,.015-.005.03-.009.045-.33,1.31-.016,1.27-1.55,1.261h-.276c-1.209,0-1.209,0-1.452,1.171-.071.344-.15.687-.207,1.034s-.212.523-.583.5c-.291-.02-.584-.01-.875,0-.315.01-.41-.129-.341-.428.143-.626.269-1.256.413-1.882.065-.28.028-.414-.315-.4-.6.027-1.2-.006-1.8.01-.393.01-.54-.147-.449-.527,0-.015.006-.03.01-.045.353-1.386-.015-1.2,1.757-1.218" transform="translate(-489.645 -172.367)" fill="#fafbfb"/>
    <path id="Path_13" data-name="Path 13" d="M238.157,373.958h7.373a3.083,3.083,0,0,1,.414.01.311.311,0,0,1,.283.312.318.318,0,0,1-.227.354,1.306,1.306,0,0,1-.5.047q-7.327,0-14.654,0c-.284,0-.7.1-.71-.352s.4-.362.694-.362q3.664-.006,7.327,0Z" transform="translate(-208.901 -339.504)" fill="#fafbfb"/>
    <path id="Path_14" data-name="Path 14" d="M117.158,237.156a1.222,1.222,0,0,1-.017.158c-.34,1.316-.34,1.316-1.681,1.316h-7.14a4.6,4.6,0,0,1,2.485-1.4,10.478,10.478,0,0,1,1.928-.077c1.472-.005,2.944,0,4.424,0" transform="translate(-98.325 -215.305)" fill="#fafbfb"/>
    <path id="Path_15" data-name="Path 15" d="M319.117,472.85c0-.383.007-.766,0-1.149,0-.194.058-.28.263-.269.291.016.583,0,.873.019a.763.763,0,0,1,.8.565.853.853,0,0,1-.307,1.023c-.229.14-.143.236-.047.377a3.055,3.055,0,0,1,.266.429c.048.106.251.233.074.339a.329.329,0,0,1-.448-.106c-.133-.206-.275-.407-.387-.624a.4.4,0,0,0-.5-.215c-.238.047-.1.249-.144.375-.073.2.185.571-.214.58-.42.01-.179-.368-.213-.565a4.682,4.682,0,0,1-.011-.779Zm.827-.067c.367.017.684-.013.681-.447,0-.451-.357-.4-.664-.437-.394-.05-.405.159-.413.46-.008.33.063.508.4.424" transform="translate(-289.649 -428.003)" fill="#fafbfb"/>
    <path id="Path_16" data-name="Path 16" d="M237.161,473.079q0-.7,0-1.4c0-.141-.013-.275.2-.279s.249.107.248.286c-.005.72,0,1.44,0,2.159,0,.115.048.263-.114.313a.319.319,0,0,1-.384-.169c-.227-.345-.461-.686-.694-1.027-.126-.185-.257-.368-.468-.67,0,.612,0,1.092,0,1.571,0,.159.014.307-.22.315s-.229-.135-.229-.3c0-.72,0-1.44,0-2.159,0-.108-.068-.266.1-.311a.36.36,0,0,1,.429.173c.334.512.682,1.014,1.025,1.521l.1-.023" transform="translate(-213.762 -427.968)" fill="#fafbfb"/>
    <path id="Path_17" data-name="Path 17" d="M253.159,424.01c0,.584,0,1.058,0,1.532,0,.158.057.344-.23.332-.243-.01-.216-.157-.216-.309,0-.7,0-1.409,0-2.113,0-.128-.048-.295.157-.325a.353.353,0,0,1,.39.166,12.093,12.093,0,0,0,1.14,1.513q0-.675,0-1.349c0-.165-.044-.351.233-.341.251.008.2.185.2.327,0,.7.006,1.409,0,2.113,0,.105.074.261-.106.3a.331.331,0,0,1-.388-.162c-.3-.46-.617-.913-.928-1.367-.057-.083-.124-.16-.25-.321" transform="translate(-229.391 -384.138)" fill="#fafbfb"/>
    <path id="Path_18" data-name="Path 18" d="M362.066,472.911a.6.6,0,0,1-.423.738,1.267,1.267,0,0,1-1.347-.129,1.561,1.561,0,0,1,.2-2.447,1.173,1.173,0,0,1,1.185.018c.124.071.347.11.205.363-.128.23-.246.177-.431.063a.684.684,0,0,0-.949.145,1.113,1.113,0,0,0-.051,1.325.714.714,0,0,0,.89.274.363.363,0,0,0,.283-.4c0-.288-.19-.222-.345-.221s-.263-.03-.269-.222.113-.222.266-.215c.046,0,.092,0,.138,0,.649-.015.649-.015.649.709" transform="translate(-326.597 -427.54)" fill="#fafbfb"/>
    <path id="Path_19" data-name="Path 19" d="M195.237,472.344c.047-.37-.2-.973.1-1.233.261-.223.847-.079,1.29-.075.168,0,.433-.123.428.232s-.27.2-.437.225a4.314,4.314,0,0,1-.506.006c-.222,0-.446-.074-.444.321,0,.377.177.388.448.368a4.377,4.377,0,0,1,.461,0c.141,0,.31-.058.313.2,0,.276-.169.239-.336.24s-.307.006-.461,0c-.245-.011-.431-.02-.424.344.007.334.144.376.413.359.245-.016.492,0,.737,0,.165,0,.256.04.254.231s-.067.25-.242.248c-.445-.005-.891-.008-1.336,0-.2,0-.266-.077-.259-.274.013-.368,0-.736,0-1.185" transform="translate(-177.174 -427.6)" fill="#fafbfb"/>
    <path id="Path_20" data-name="Path 20" d="M279.553,471.981c0-1.515.025-1.534,1.573-1.35.14.017.23.037.233.207,0,.2-.067.279-.269.27-.245-.012-.493.016-.736-.01-.308-.033-.348.112-.351.375s.091.348.347.321c.2-.021.4,0,.6,0,.141,0,.27-.024.27.2s-.107.254-.286.246-.338.008-.507,0c-.242-.01-.428-.031-.429.337s.186.375.452.361c.23-.012.461,0,.691,0,.168,0,.249.05.251.236s-.083.238-.248.237c-.445,0-.891,0-1.336.006-.2,0-.261-.091-.256-.281.01-.383,0-.767,0-1.15" transform="translate(-253.756 -427.204)" fill="#fafbfb"/>
    <path id="Path_21" data-name="Path 21" d="M371.01,425.695c-.33.093-.522.018-.578-.294-.085-.466-.455-.3-.728-.312s-.563-.089-.628.32c-.049.307-.244.4-.556.277.319-.842.64-1.68.953-2.52a.287.287,0,0,1,.307-.2c.189-.01.232.107.281.237l.95,2.494m-1.252-2.067c-.1.262-.18.473-.273.676-.115.25-.061.319.227.336.395.023.433-.111.285-.422-.082-.173-.145-.354-.239-.59" transform="translate(-334.516 -384)" fill="#fafbfb"/>
    <path id="Path_22" data-name="Path 22" d="M296.7,422.866a1.115,1.115,0,0,1,.633.176c.121.067.241.147.115.322-.089.125-.161.23-.323.1a.436.436,0,0,0-.161-.088c-.236-.057-.52-.165-.643.133-.136.329.148.4.389.485.4.137.858.229.892.785a.762.762,0,0,1-.495.843,1.36,1.36,0,0,1-1.286-.291c-.111-.15.013-.219.068-.317.082-.144.17-.078.258-.008a.915.915,0,0,0,.592.222c.187,0,.377-.044.412-.281.031-.208-.108-.311-.271-.376s-.324-.095-.482-.152a.739.739,0,0,1-.548-.925.752.752,0,0,1,.851-.63" transform="translate(-268.484 -383.909)" fill="#fafbfb"/>
    <path id="Path_23" data-name="Path 23" d="M401.322,471.445c.872-.06.708.817,1.174,1.089.436-.241.264-1.182,1.154-1.073-.128.224-.229.408-.338.587a2.661,2.661,0,0,0-.6,1.908c.03.161-.033.265-.22.263-.138,0-.265-.029-.235-.2.162-.927-.426-1.585-.817-2.315-.035-.065-.06-.134-.117-.264" transform="translate(-364.293 -428.013)" fill="#fafbfb"/>
    <path id="Path_24" data-name="Path 24" d="M334.021,423.12h.644c.154,0,.3-.021.307.219,0,.221-.105.272-.279.238-.446-.087-.5.147-.482.515.026.5,0,1.01.01,1.515,0,.2-.057.269-.26.268s-.21-.119-.209-.267c0-.536-.013-1.072.008-1.607.012-.3-.053-.464-.4-.427-.165.018-.393.079-.386-.229s.237-.212.4-.22c.214-.01.429,0,.644,0Z" transform="translate(-302.252 -384.14)" fill="#fafbfb"/>
    <path id="Path_25" data-name="Path 25" d="M226.626,424.489c0-.351,0-.7,0-1.053,0-.146-.008-.273.2-.272.179,0,.242.071.241.245,0,.763-.005,1.526,0,2.289,0,.2-.106.212-.261.217-.186.006-.186-.106-.186-.236,0-.4,0-.794,0-1.19Z" transform="translate(-205.713 -384.182)" fill="#fafbfb"/>
    <path id="Path_26" data-name="Path 26" d="M476.279,272.071l-.183-.012c-1.06-.054-1.438-.42-1.367-1.484a5.072,5.072,0,0,1,1.55-3.476,2.67,2.67,0,0,1,2.554-.2,1.021,1.021,0,0,1,.486.8,5.106,5.106,0,0,1-1.289,3.716,1.632,1.632,0,0,1-1.751.659" transform="translate(-430.919 -242.099)" fill="#303291"/>
    <path id="Path_27" data-name="Path 27" d="M324.444,477.323c-.332.084-.4-.094-.4-.424.007-.3.019-.51.413-.46.307.039.661-.014.664.437,0,.434-.315.464-.681.447" transform="translate(-294.149 -432.543)" fill="#303291"/>
    <path id="Path_28" data-name="Path 28" d="M378.7,430.175c.095.236.157.418.239.59.148.311.11.445-.285.422-.288-.017-.342-.086-.227-.336.093-.2.168-.414.273-.676" transform="translate(-343.462 -390.547)" fill="#303291"/>
  </g>
</svg>
